<svg xmlns="http://www.w3.org/2000/svg" viewBox="0 0 1200 630">
  <defs>
    <linearGradient id="ogSky" x1="0" y1="0" x2="0" y2="1">
      <stop offset="0%" stop-color="#FFB347"/>
      <stop offset="35%" stop-color="#FF8C5A"/>
      <stop offset="75%" stop-color="#5BA8D4"/>
      <stop offset="100%" stop-color="#0077B6"/>
    </linearGradient>
    <radialGradient id="ogSun" cx="50%" cy="50%" r="50%">
      <stop offset="0%" stop-color="#FFF4D6"/>
      <stop offset="60%" stop-color="#FFD56B"/>
      <stop offset="100%" stop-color="#FFB347"/>
    </radialGradient>
    <linearGradient id="ogWave" x1="0" y1="0" x2="0" y2="1">
      <stop offset="0%" stop-color="#48CAE4"/>
      <stop offset="100%" stop-color="#0096C7"/>
    </linearGradient>
    <linearGradient id="ogSand" x1="0" y1="0" x2="0" y2="1">
      <stop offset="0%" stop-color="#F5DEB3"/>
      <stop offset="100%" stop-color="#E6C580"/>
    </linearGradient>
  </defs>

  <rect width="1200" height="630" fill="url(#ogSky)"/>

  <circle cx="1000" cy="180" r="95" fill="url(#ogSun)"/>

  <ellipse cx="1000" cy="430" rx="120" ry="8" fill="#FFE4A8" opacity="0.5"/>
  <ellipse cx="1000" cy="455" rx="90" ry="6" fill="#FFE4A8" opacity="0.4"/>
  <ellipse cx="1000" cy="478" rx="60" ry="5" fill="#FFE4A8" opacity="0.3"/>

  <path d="M 0 420 Q 300 400 600 420 T 1200 420 L 1200 630 L 0 630 Z" fill="url(#ogWave)" opacity="0.85"/>

  <path d="M -50 510 C 200 450, 400 460, 550 500 C 650 540, 700 460, 850 480 C 1000 500, 1100 490, 1250 500 L 1250 630 L -50 630 Z" fill="url(#ogWave)"/>

  <path d="M 0 605 Q 600 595 1200 605 L 1200 630 L 0 630 Z" fill="url(#ogSand)"/>

  <text x="600" y="290" text-anchor="middle" font-family="-apple-system, BlinkMacSystemFont, 'Segoe UI', sans-serif" font-size="160" font-weight="800" fill="#FFFFFF" letter-spacing="-6">Shorely</text>

  <text x="600" y="350" text-anchor="middle" font-family="-apple-system, BlinkMacSystemFont, 'Segoe UI', sans-serif" font-size="40" font-weight="500" fill="#FFFFFF" opacity="0.95" letter-spacing="1">Know before you go.</text>

  <text x="600" y="395" text-anchor="middle" font-family="-apple-system, BlinkMacSystemFont, 'Segoe UI', sans-serif" font-size="22" font-weight="500" fill="#FFFFFF" opacity="0.8">Real-time Jersey Shore beach rankings</text>
</svg>