<svg xmlns="http://www.w3.org/2000/svg" viewBox="0 0 1200 630">
  <defs>
    <linearGradient id="sky" x1="0" y1="0" x2="0" y2="1">
      <stop offset="0%" stop-color="#0a4d6e"/>
      <stop offset="100%" stop-color="#1c7a9e"/>
    </linearGradient>
    <linearGradient id="sand" x1="0" y1="0" x2="0" y2="1">
      <stop offset="0%" stop-color="#f7f3ec"/>
      <stop offset="100%" stop-color="#e8dcc4"/>
    </linearGradient>
  </defs>

  <rect width="1200" height="630" fill="url(#sky)"/>
  <circle cx="980" cy="160" r="70" fill="#f5d77a"/>

  <path d="M0 440 Q100 410 200 440 T400 440 T600 440 T800 440 T1000 440 T1200 440 L1200 470 L0 470 Z" fill="#2b97c0" opacity="0.6"/>
  <path d="M0 470 Q100 440 200 470 T400 470 T600 470 T800 470 T1000 470 T1200 470 L1200 500 L0 500 Z" fill="#1c7a9e" opacity="0.7"/>

  <rect x="0" y="495" width="1200" height="135" fill="url(#sand)"/>

  <text x="80" y="220" font-family="-apple-system, BlinkMacSystemFont, 'Segoe UI', Roboto, sans-serif" font-size="140" font-weight="800" fill="#ffffff" letter-spacing="-3">Shorely</text>
  <text x="82" y="290" font-family="-apple-system, BlinkMacSystemFont, 'Segoe UI', Roboto, sans-serif" font-size="42" font-weight="500" fill="#ffffff" opacity="0.92">Know before you go.</text>
  <text x="82" y="345" font-family="-apple-system, BlinkMacSystemFont, 'Segoe UI', Roboto, sans-serif" font-size="26" font-weight="400" fill="#ffffff" opacity="0.75">Weather · Surf · Water · Tides · Crowd · Parking</text>

  <rect x="80" y="540" width="290" height="62" rx="31" fill="#ffffff"/>
  <text x="225" y="582" text-anchor="middle" font-family="-apple-system, BlinkMacSystemFont, 'Segoe UI', Roboto, sans-serif" font-size="26" font-weight="700" fill="#0a4d6e">30 BEACHES, RANKED</text>

  <text x="1120" y="600" text-anchor="end" font-family="-apple-system, BlinkMacSystemFont, 'Segoe UI', Roboto, sans-serif" font-size="22" font-weight="500" fill="#0a4d6e" opacity="0.7">@shorely.io</text>
</svg>